Love for All and Sharing is the first step to solving all the problems of humanity.

Websites I want to share.

    
http://www.shareintl.org/

    
http://www.lightmiddleway.com


Thank you very much

No credit for me...credit to EVERYONE for sharing
 
http://thepiratebay.org/user/raymondhome/

PLOT
Chicago crime kid Mick O'Brien is sent to reform school after accidentally killing Paco Moreno's kid brother.

IMDb RATING: 7.0/10 (5,160 votes)

Format : MPEG-4
Duration : 2h 3mn
Overall bit rate : 1 274 Kbps

Video:
ID : 1
Format : AVC
Format/Info : Advanced Video Codec
Format profile : Main@L3.0
Format settings, CABAC : Yes
Format settings, ReFrames : 2 frames
Codec ID : avc1
Codec ID/Info : Advanced Video Coding
Duration : 2h 3mn
Bit rate mode : Variable
Bit rate : 1 146 Kbps
Width : 718 pixels
Height : 464 pixels
Display aspect ratio : 16:9
Frame rate mode : Variable
Frame rate : 24.030 fps
Minimum frame rate : 14.985 fps
Maximum frame rate : 29.970 fps
Original frame rate : 23.976 fps
Resolution : 8 bits
Colorimetry : 4:2:0
Scan type : Progressive
Bits/(Pixel*Frame) : 0.143
Stream size : 1 011 MiB (90%)
Writing library : x264 core 79

Audio:
ID : 2
Format : AAC
Format/Info : Advanced Audio Codec
Format version : Version 4
Format profile : LC
Format settings, SBR : No
Codec ID : 40
Duration : 2h 3mn
Bit rate mode : Variable
Bit rate : 122 Kbps
Maximum bit rate : 163 Kbps
Channel(s) : 2 channels
Channel positions : Front: L R
Sampling rate : 48.0 KHz
Stream size : 108 MiB (10%)
Language : English

credit BigPerm1828 BIG BIG BIG TIME & to all the people who made it possible for us to share this...especially EVERYONE involve in the production of the movie...IF YOU LIKE IT...BUY IT :)

*****help what we can with others in need...the world is ONE big family*****